<mxfile host="Electron" modified="2024-02-08T12:10:56.032Z" agent="Mozilla/5.0 (Windows NT 10.0; Win64; x64) AppleWebKit/537.36 (KHTML, like Gecko) draw.io/21.1.2 Chrome/106.0.5249.199 Electron/21.4.3 Safari/537.36" etag="5F1yX3nBR-o3gFoT1km_" version="21.1.2" type="device">
  <diagram name="Страница 1" id="Q6UIQoVVS6o-t2QDLNRh">
    <mxGraphModel dx="1668" dy="2143" grid="1" gridSize="10" guides="1" tooltips="1" connect="1" arrows="1" fold="1" page="1" pageScale="1" pageWidth="827" pageHeight="1169" math="0" shadow="0">
      <root>
        <mxCell id="0" />
        <mxCell id="1" parent="0" />
        <mxCell id="eHMBAaHmhwhKZ04-8SyI-1" value="station_marker" style="swimlane;fontStyle=0;childLayout=stackLayout;horizontal=1;startSize=30;horizontalStack=0;resizeParent=1;resizeParentMax=0;resizeLast=0;collapsible=1;marginBottom=0;whiteSpace=wrap;html=1;" parent="1" vertex="1">
          <mxGeometry x="980" y="520" width="140" height="120" as="geometry" />
        </mxCell>
        <mxCell id="eHMBAaHmhwhKZ04-8SyI-2" value="station_id&amp;nbsp;" style="text;align=left;verticalAlign=middle;spacingLeft=4;spacingRight=4;overflow=hidden;points=[[0,0.5],[1,0.5]];portConstraint=eastwest;rotatable=0;whiteSpace=wrap;html=1;" parent="eHMBAaHmhwhKZ04-8SyI-1" vertex="1">
          <mxGeometry y="30" width="140" height="30" as="geometry" />
        </mxCell>
        <mxCell id="eHMBAaHmhwhKZ04-8SyI-4" value="longitude" style="text;align=left;verticalAlign=middle;spacingLeft=4;spacingRight=4;overflow=hidden;points=[[0,0.5],[1,0.5]];portConstraint=eastwest;rotatable=0;whiteSpace=wrap;html=1;" parent="eHMBAaHmhwhKZ04-8SyI-1" vertex="1">
          <mxGeometry y="60" width="140" height="30" as="geometry" />
        </mxCell>
        <mxCell id="eHMBAaHmhwhKZ04-8SyI-28" value="latitude" style="text;align=left;verticalAlign=middle;spacingLeft=4;spacingRight=4;overflow=hidden;points=[[0,0.5],[1,0.5]];portConstraint=eastwest;rotatable=0;whiteSpace=wrap;html=1;" parent="eHMBAaHmhwhKZ04-8SyI-1" vertex="1">
          <mxGeometry y="90" width="140" height="30" as="geometry" />
        </mxCell>
        <mxCell id="eHMBAaHmhwhKZ04-8SyI-5" value="station_description" style="swimlane;fontStyle=0;childLayout=stackLayout;horizontal=1;startSize=30;horizontalStack=0;resizeParent=1;resizeParentMax=0;resizeLast=0;collapsible=1;marginBottom=0;whiteSpace=wrap;html=1;" parent="1" vertex="1">
          <mxGeometry x="740" y="-45" width="150" height="630" as="geometry" />
        </mxCell>
        <mxCell id="eHMBAaHmhwhKZ04-8SyI-6" value="description_id" style="text;align=left;verticalAlign=middle;spacingLeft=4;spacingRight=4;overflow=hidden;points=[[0,0.5],[1,0.5]];portConstraint=eastwest;rotatable=0;whiteSpace=wrap;html=1;" parent="eHMBAaHmhwhKZ04-8SyI-5" vertex="1">
          <mxGeometry y="30" width="150" height="30" as="geometry" />
        </mxCell>
        <mxCell id="eHMBAaHmhwhKZ04-8SyI-7" value="station_id" style="text;align=left;verticalAlign=middle;spacingLeft=4;spacingRight=4;overflow=hidden;points=[[0,0.5],[1,0.5]];portConstraint=eastwest;rotatable=0;whiteSpace=wrap;html=1;" parent="eHMBAaHmhwhKZ04-8SyI-5" vertex="1">
          <mxGeometry y="60" width="150" height="30" as="geometry" />
        </mxCell>
        <mxCell id="eHMBAaHmhwhKZ04-8SyI-8" value="station_name" style="text;align=left;verticalAlign=middle;spacingLeft=4;spacingRight=4;overflow=hidden;points=[[0,0.5],[1,0.5]];portConstraint=eastwest;rotatable=0;whiteSpace=wrap;html=1;" parent="eHMBAaHmhwhKZ04-8SyI-5" vertex="1">
          <mxGeometry y="90" width="150" height="30" as="geometry" />
        </mxCell>
        <mxCell id="eHMBAaHmhwhKZ04-8SyI-30" value="description_string" style="text;align=left;verticalAlign=middle;spacingLeft=4;spacingRight=4;overflow=hidden;points=[[0,0.5],[1,0.5]];portConstraint=eastwest;rotatable=0;whiteSpace=wrap;html=1;" parent="eHMBAaHmhwhKZ04-8SyI-5" vertex="1">
          <mxGeometry y="120" width="150" height="30" as="geometry" />
        </mxCell>
        <mxCell id="eHMBAaHmhwhKZ04-8SyI-31" value="location_type" style="text;align=left;verticalAlign=middle;spacingLeft=4;spacingRight=4;overflow=hidden;points=[[0,0.5],[1,0.5]];portConstraint=eastwest;rotatable=0;whiteSpace=wrap;html=1;" parent="eHMBAaHmhwhKZ04-8SyI-5" vertex="1">
          <mxGeometry y="150" width="150" height="30" as="geometry" />
        </mxCell>
        <mxCell id="eHMBAaHmhwhKZ04-8SyI-41" value="country_code" style="text;align=left;verticalAlign=middle;spacingLeft=4;spacingRight=4;overflow=hidden;points=[[0,0.5],[1,0.5]];portConstraint=eastwest;rotatable=0;whiteSpace=wrap;html=1;" parent="eHMBAaHmhwhKZ04-8SyI-5" vertex="1">
          <mxGeometry y="180" width="150" height="30" as="geometry" />
        </mxCell>
        <mxCell id="eHMBAaHmhwhKZ04-8SyI-40" value="support_phone" style="text;align=left;verticalAlign=middle;spacingLeft=4;spacingRight=4;overflow=hidden;points=[[0,0.5],[1,0.5]];portConstraint=eastwest;rotatable=0;whiteSpace=wrap;html=1;" parent="eHMBAaHmhwhKZ04-8SyI-5" vertex="1">
          <mxGeometry y="210" width="150" height="30" as="geometry" />
        </mxCell>
        <mxCell id="eHMBAaHmhwhKZ04-8SyI-39" value="is_support_charging" style="text;align=left;verticalAlign=middle;spacingLeft=4;spacingRight=4;overflow=hidden;points=[[0,0.5],[1,0.5]];portConstraint=eastwest;rotatable=0;whiteSpace=wrap;html=1;" parent="eHMBAaHmhwhKZ04-8SyI-5" vertex="1">
          <mxGeometry y="240" width="150" height="30" as="geometry" />
        </mxCell>
        <mxCell id="eHMBAaHmhwhKZ04-8SyI-38" value="is_support_reservation" style="text;align=left;verticalAlign=middle;spacingLeft=4;spacingRight=4;overflow=hidden;points=[[0,0.5],[1,0.5]];portConstraint=eastwest;rotatable=0;whiteSpace=wrap;html=1;" parent="eHMBAaHmhwhKZ04-8SyI-5" vertex="1">
          <mxGeometry y="270" width="150" height="30" as="geometry" />
        </mxCell>
        <mxCell id="eHMBAaHmhwhKZ04-8SyI-37" value="location_name" style="text;align=left;verticalAlign=middle;spacingLeft=4;spacingRight=4;overflow=hidden;points=[[0,0.5],[1,0.5]];portConstraint=eastwest;rotatable=0;whiteSpace=wrap;html=1;" parent="eHMBAaHmhwhKZ04-8SyI-5" vertex="1">
          <mxGeometry y="300" width="150" height="30" as="geometry" />
        </mxCell>
        <mxCell id="eHMBAaHmhwhKZ04-8SyI-36" value="last_charging" style="text;align=left;verticalAlign=middle;spacingLeft=4;spacingRight=4;overflow=hidden;points=[[0,0.5],[1,0.5]];portConstraint=eastwest;rotatable=0;whiteSpace=wrap;html=1;" parent="eHMBAaHmhwhKZ04-8SyI-5" vertex="1">
          <mxGeometry y="330" width="150" height="30" as="geometry" />
        </mxCell>
        <mxCell id="eHMBAaHmhwhKZ04-8SyI-35" value="is_public" style="text;align=left;verticalAlign=middle;spacingLeft=4;spacingRight=4;overflow=hidden;points=[[0,0.5],[1,0.5]];portConstraint=eastwest;rotatable=0;whiteSpace=wrap;html=1;" parent="eHMBAaHmhwhKZ04-8SyI-5" vertex="1">
          <mxGeometry y="360" width="150" height="30" as="geometry" />
        </mxCell>
        <mxCell id="eHMBAaHmhwhKZ04-8SyI-46" value="is_fast_charger" style="text;align=left;verticalAlign=middle;spacingLeft=4;spacingRight=4;overflow=hidden;points=[[0,0.5],[1,0.5]];portConstraint=eastwest;rotatable=0;whiteSpace=wrap;html=1;" parent="eHMBAaHmhwhKZ04-8SyI-5" vertex="1">
          <mxGeometry y="390" width="150" height="30" as="geometry" />
        </mxCell>
        <mxCell id="eHMBAaHmhwhKZ04-8SyI-49" value="is_open_24x7" style="text;align=left;verticalAlign=middle;spacingLeft=4;spacingRight=4;overflow=hidden;points=[[0,0.5],[1,0.5]];portConstraint=eastwest;rotatable=0;whiteSpace=wrap;html=1;" parent="eHMBAaHmhwhKZ04-8SyI-5" vertex="1">
          <mxGeometry y="420" width="150" height="30" as="geometry" />
        </mxCell>
        <mxCell id="eHMBAaHmhwhKZ04-8SyI-45" value="min_power_kw" style="text;align=left;verticalAlign=middle;spacingLeft=4;spacingRight=4;overflow=hidden;points=[[0,0.5],[1,0.5]];portConstraint=eastwest;rotatable=0;whiteSpace=wrap;html=1;" parent="eHMBAaHmhwhKZ04-8SyI-5" vertex="1">
          <mxGeometry y="450" width="150" height="30" as="geometry" />
        </mxCell>
        <mxCell id="eHMBAaHmhwhKZ04-8SyI-44" value="max_power_kw" style="text;align=left;verticalAlign=middle;spacingLeft=4;spacingRight=4;overflow=hidden;points=[[0,0.5],[1,0.5]];portConstraint=eastwest;rotatable=0;whiteSpace=wrap;html=1;" parent="eHMBAaHmhwhKZ04-8SyI-5" vertex="1">
          <mxGeometry y="480" width="150" height="30" as="geometry" />
        </mxCell>
        <mxCell id="eHMBAaHmhwhKZ04-8SyI-50" value="last_status_update" style="text;align=left;verticalAlign=middle;spacingLeft=4;spacingRight=4;overflow=hidden;points=[[0,0.5],[1,0.5]];portConstraint=eastwest;rotatable=0;whiteSpace=wrap;html=1;" parent="eHMBAaHmhwhKZ04-8SyI-5" vertex="1">
          <mxGeometry y="510" width="150" height="30" as="geometry" />
        </mxCell>
        <mxCell id="eHMBAaHmhwhKZ04-8SyI-43" value="status_id" style="text;align=left;verticalAlign=middle;spacingLeft=4;spacingRight=4;overflow=hidden;points=[[0,0.5],[1,0.5]];portConstraint=eastwest;rotatable=0;whiteSpace=wrap;html=1;" parent="eHMBAaHmhwhKZ04-8SyI-5" vertex="1">
          <mxGeometry y="540" width="150" height="30" as="geometry" />
        </mxCell>
        <mxCell id="eHMBAaHmhwhKZ04-8SyI-47" value="network_id" style="text;align=left;verticalAlign=middle;spacingLeft=4;spacingRight=4;overflow=hidden;points=[[0,0.5],[1,0.5]];portConstraint=eastwest;rotatable=0;whiteSpace=wrap;html=1;" parent="eHMBAaHmhwhKZ04-8SyI-5" vertex="1">
          <mxGeometry y="570" width="150" height="30" as="geometry" />
        </mxCell>
        <mxCell id="D97MzKLhW7yo7kMdvlw_-9" value="station_flags" style="text;align=left;verticalAlign=middle;spacingLeft=4;spacingRight=4;overflow=hidden;points=[[0,0.5],[1,0.5]];portConstraint=eastwest;rotatable=0;whiteSpace=wrap;html=1;" parent="eHMBAaHmhwhKZ04-8SyI-5" vertex="1">
          <mxGeometry y="600" width="150" height="30" as="geometry" />
        </mxCell>
        <mxCell id="eHMBAaHmhwhKZ04-8SyI-9" value="station_connector" style="swimlane;fontStyle=0;childLayout=stackLayout;horizontal=1;startSize=30;horizontalStack=0;resizeParent=1;resizeParentMax=0;resizeLast=0;collapsible=1;marginBottom=0;whiteSpace=wrap;html=1;" parent="1" vertex="1">
          <mxGeometry x="980" y="110" width="180" height="390" as="geometry" />
        </mxCell>
        <mxCell id="eHMBAaHmhwhKZ04-8SyI-10" value="connector_id" style="text;align=left;verticalAlign=middle;spacingLeft=4;spacingRight=4;overflow=hidden;points=[[0,0.5],[1,0.5]];portConstraint=eastwest;rotatable=0;whiteSpace=wrap;html=1;" parent="eHMBAaHmhwhKZ04-8SyI-9" vertex="1">
          <mxGeometry y="30" width="180" height="30" as="geometry" />
        </mxCell>
        <mxCell id="eHMBAaHmhwhKZ04-8SyI-121" value="description_id" style="text;align=left;verticalAlign=middle;spacingLeft=4;spacingRight=4;overflow=hidden;points=[[0,0.5],[1,0.5]];portConstraint=eastwest;rotatable=0;whiteSpace=wrap;html=1;" parent="eHMBAaHmhwhKZ04-8SyI-9" vertex="1">
          <mxGeometry y="60" width="180" height="30" as="geometry" />
        </mxCell>
        <mxCell id="eHMBAaHmhwhKZ04-8SyI-11" value="connetor_type_id" style="text;align=left;verticalAlign=middle;spacingLeft=4;spacingRight=4;overflow=hidden;points=[[0,0.5],[1,0.5]];portConstraint=eastwest;rotatable=0;whiteSpace=wrap;html=1;" parent="eHMBAaHmhwhKZ04-8SyI-9" vertex="1">
          <mxGeometry y="90" width="180" height="30" as="geometry" />
        </mxCell>
        <mxCell id="eHMBAaHmhwhKZ04-8SyI-90" value="connector_status_id" style="text;align=left;verticalAlign=middle;spacingLeft=4;spacingRight=4;overflow=hidden;points=[[0,0.5],[1,0.5]];portConstraint=eastwest;rotatable=0;whiteSpace=wrap;html=1;" parent="eHMBAaHmhwhKZ04-8SyI-9" vertex="1">
          <mxGeometry y="120" width="180" height="30" as="geometry" />
        </mxCell>
        <mxCell id="eHMBAaHmhwhKZ04-8SyI-12" value="connector_name" style="text;align=left;verticalAlign=middle;spacingLeft=4;spacingRight=4;overflow=hidden;points=[[0,0.5],[1,0.5]];portConstraint=eastwest;rotatable=0;whiteSpace=wrap;html=1;" parent="eHMBAaHmhwhKZ04-8SyI-9" vertex="1">
          <mxGeometry y="150" width="180" height="30" as="geometry" />
        </mxCell>
        <mxCell id="eHMBAaHmhwhKZ04-8SyI-86" value="power_kw" style="text;align=left;verticalAlign=middle;spacingLeft=4;spacingRight=4;overflow=hidden;points=[[0,0.5],[1,0.5]];portConstraint=eastwest;rotatable=0;whiteSpace=wrap;html=1;" parent="eHMBAaHmhwhKZ04-8SyI-9" vertex="1">
          <mxGeometry y="180" width="180" height="30" as="geometry" />
        </mxCell>
        <mxCell id="eHMBAaHmhwhKZ04-8SyI-85" value="current_amp" style="text;align=left;verticalAlign=middle;spacingLeft=4;spacingRight=4;overflow=hidden;points=[[0,0.5],[1,0.5]];portConstraint=eastwest;rotatable=0;whiteSpace=wrap;html=1;" parent="eHMBAaHmhwhKZ04-8SyI-9" vertex="1">
          <mxGeometry y="210" width="180" height="30" as="geometry" />
        </mxCell>
        <mxCell id="eHMBAaHmhwhKZ04-8SyI-84" value="price_per_start" style="text;align=left;verticalAlign=middle;spacingLeft=4;spacingRight=4;overflow=hidden;points=[[0,0.5],[1,0.5]];portConstraint=eastwest;rotatable=0;whiteSpace=wrap;html=1;" parent="eHMBAaHmhwhKZ04-8SyI-9" vertex="1">
          <mxGeometry y="240" width="180" height="30" as="geometry" />
        </mxCell>
        <mxCell id="eHMBAaHmhwhKZ04-8SyI-83" value="price" style="text;align=left;verticalAlign=middle;spacingLeft=4;spacingRight=4;overflow=hidden;points=[[0,0.5],[1,0.5]];portConstraint=eastwest;rotatable=0;whiteSpace=wrap;html=1;" parent="eHMBAaHmhwhKZ04-8SyI-9" vertex="1">
          <mxGeometry y="270" width="180" height="30" as="geometry" />
        </mxCell>
        <mxCell id="eHMBAaHmhwhKZ04-8SyI-89" value="currency" style="text;align=left;verticalAlign=middle;spacingLeft=4;spacingRight=4;overflow=hidden;points=[[0,0.5],[1,0.5]];portConstraint=eastwest;rotatable=0;whiteSpace=wrap;html=1;" parent="eHMBAaHmhwhKZ04-8SyI-9" vertex="1">
          <mxGeometry y="300" width="180" height="30" as="geometry" />
        </mxCell>
        <mxCell id="eHMBAaHmhwhKZ04-8SyI-92" value="free_min_after_charging" style="text;align=left;verticalAlign=middle;spacingLeft=4;spacingRight=4;overflow=hidden;points=[[0,0.5],[1,0.5]];portConstraint=eastwest;rotatable=0;whiteSpace=wrap;html=1;" parent="eHMBAaHmhwhKZ04-8SyI-9" vertex="1">
          <mxGeometry y="330" width="180" height="30" as="geometry" />
        </mxCell>
        <mxCell id="eHMBAaHmhwhKZ04-8SyI-91" value="price_per_min_after_charging" style="text;align=left;verticalAlign=middle;spacingLeft=4;spacingRight=4;overflow=hidden;points=[[0,0.5],[1,0.5]];portConstraint=eastwest;rotatable=0;whiteSpace=wrap;html=1;" parent="eHMBAaHmhwhKZ04-8SyI-9" vertex="1">
          <mxGeometry y="360" width="180" height="30" as="geometry" />
        </mxCell>
        <mxCell id="eHMBAaHmhwhKZ04-8SyI-55" value="api_source" style="swimlane;fontStyle=0;childLayout=stackLayout;horizontal=1;startSize=30;horizontalStack=0;resizeParent=1;resizeParentMax=0;resizeLast=0;collapsible=1;marginBottom=0;whiteSpace=wrap;html=1;" parent="1" vertex="1">
          <mxGeometry x="500" y="480" width="140" height="240" as="geometry" />
        </mxCell>
        <mxCell id="eHMBAaHmhwhKZ04-8SyI-56" value="api_id" style="text;align=left;verticalAlign=middle;spacingLeft=4;spacingRight=4;overflow=hidden;points=[[0,0.5],[1,0.5]];portConstraint=eastwest;rotatable=0;whiteSpace=wrap;html=1;" parent="eHMBAaHmhwhKZ04-8SyI-55" vertex="1">
          <mxGeometry y="30" width="140" height="30" as="geometry" />
        </mxCell>
        <mxCell id="eHMBAaHmhwhKZ04-8SyI-57" value="link" style="text;align=left;verticalAlign=middle;spacingLeft=4;spacingRight=4;overflow=hidden;points=[[0,0.5],[1,0.5]];portConstraint=eastwest;rotatable=0;whiteSpace=wrap;html=1;" parent="eHMBAaHmhwhKZ04-8SyI-55" vertex="1">
          <mxGeometry y="60" width="140" height="30" as="geometry" />
        </mxCell>
        <mxCell id="XEs6X6zIgtcY5QuXKeif-1" value="detailed_link" style="text;align=left;verticalAlign=middle;spacingLeft=4;spacingRight=4;overflow=hidden;points=[[0,0.5],[1,0.5]];portConstraint=eastwest;rotatable=0;whiteSpace=wrap;html=1;" parent="eHMBAaHmhwhKZ04-8SyI-55" vertex="1">
          <mxGeometry y="90" width="140" height="30" as="geometry" />
        </mxCell>
        <mxCell id="B8zyZ4hVJzOk52c6VMQS-4" value="comments_link" style="text;align=left;verticalAlign=middle;spacingLeft=4;spacingRight=4;overflow=hidden;points=[[0,0.5],[1,0.5]];portConstraint=eastwest;rotatable=0;whiteSpace=wrap;html=1;" parent="eHMBAaHmhwhKZ04-8SyI-55" vertex="1">
          <mxGeometry y="120" width="140" height="30" as="geometry" />
        </mxCell>
        <mxCell id="eHMBAaHmhwhKZ04-8SyI-60" value="last_update" style="text;align=left;verticalAlign=middle;spacingLeft=4;spacingRight=4;overflow=hidden;points=[[0,0.5],[1,0.5]];portConstraint=eastwest;rotatable=0;whiteSpace=wrap;html=1;" parent="eHMBAaHmhwhKZ04-8SyI-55" vertex="1">
          <mxGeometry y="150" width="140" height="30" as="geometry" />
        </mxCell>
        <mxCell id="eHMBAaHmhwhKZ04-8SyI-59" value="next_update" style="text;align=left;verticalAlign=middle;spacingLeft=4;spacingRight=4;overflow=hidden;points=[[0,0.5],[1,0.5]];portConstraint=eastwest;rotatable=0;whiteSpace=wrap;html=1;" parent="eHMBAaHmhwhKZ04-8SyI-55" vertex="1">
          <mxGeometry y="180" width="140" height="30" as="geometry" />
        </mxCell>
        <mxCell id="eHMBAaHmhwhKZ04-8SyI-58" value="update_interval_ms" style="text;align=left;verticalAlign=middle;spacingLeft=4;spacingRight=4;overflow=hidden;points=[[0,0.5],[1,0.5]];portConstraint=eastwest;rotatable=0;whiteSpace=wrap;html=1;" parent="eHMBAaHmhwhKZ04-8SyI-55" vertex="1">
          <mxGeometry y="210" width="140" height="30" as="geometry" />
        </mxCell>
        <mxCell id="eHMBAaHmhwhKZ04-8SyI-64" value="images" style="swimlane;fontStyle=0;childLayout=stackLayout;horizontal=1;startSize=30;horizontalStack=0;resizeParent=1;resizeParentMax=0;resizeLast=0;collapsible=1;marginBottom=0;whiteSpace=wrap;html=1;" parent="1" vertex="1">
          <mxGeometry x="500" y="180" width="140" height="120" as="geometry" />
        </mxCell>
        <mxCell id="eHMBAaHmhwhKZ04-8SyI-65" value="image_id" style="text;align=left;verticalAlign=middle;spacingLeft=4;spacingRight=4;overflow=hidden;points=[[0,0.5],[1,0.5]];portConstraint=eastwest;rotatable=0;whiteSpace=wrap;html=1;" parent="eHMBAaHmhwhKZ04-8SyI-64" vertex="1">
          <mxGeometry y="30" width="140" height="30" as="geometry" />
        </mxCell>
        <mxCell id="eHMBAaHmhwhKZ04-8SyI-118" value="description_id" style="text;align=left;verticalAlign=middle;spacingLeft=4;spacingRight=4;overflow=hidden;points=[[0,0.5],[1,0.5]];portConstraint=eastwest;rotatable=0;whiteSpace=wrap;html=1;" parent="eHMBAaHmhwhKZ04-8SyI-64" vertex="1">
          <mxGeometry y="60" width="140" height="30" as="geometry" />
        </mxCell>
        <mxCell id="eHMBAaHmhwhKZ04-8SyI-66" value="image_href" style="text;align=left;verticalAlign=middle;spacingLeft=4;spacingRight=4;overflow=hidden;points=[[0,0.5],[1,0.5]];portConstraint=eastwest;rotatable=0;whiteSpace=wrap;html=1;" parent="eHMBAaHmhwhKZ04-8SyI-64" vertex="1">
          <mxGeometry y="90" width="140" height="30" as="geometry" />
        </mxCell>
        <mxCell id="eHMBAaHmhwhKZ04-8SyI-72" value="comments" style="swimlane;fontStyle=0;childLayout=stackLayout;horizontal=1;startSize=30;horizontalStack=0;resizeParent=1;resizeParentMax=0;resizeLast=0;collapsible=1;marginBottom=0;whiteSpace=wrap;html=1;" parent="1" vertex="1">
          <mxGeometry x="500" y="-50" width="140" height="210" as="geometry" />
        </mxCell>
        <mxCell id="eHMBAaHmhwhKZ04-8SyI-73" value="comment_id" style="text;align=left;verticalAlign=middle;spacingLeft=4;spacingRight=4;overflow=hidden;points=[[0,0.5],[1,0.5]];portConstraint=eastwest;rotatable=0;whiteSpace=wrap;html=1;" parent="eHMBAaHmhwhKZ04-8SyI-72" vertex="1">
          <mxGeometry y="30" width="140" height="30" as="geometry" />
        </mxCell>
        <mxCell id="eHMBAaHmhwhKZ04-8SyI-117" value="description_id" style="text;align=left;verticalAlign=middle;spacingLeft=4;spacingRight=4;overflow=hidden;points=[[0,0.5],[1,0.5]];portConstraint=eastwest;rotatable=0;whiteSpace=wrap;html=1;" parent="eHMBAaHmhwhKZ04-8SyI-72" vertex="1">
          <mxGeometry y="60" width="140" height="30" as="geometry" />
        </mxCell>
        <mxCell id="eHMBAaHmhwhKZ04-8SyI-74" value="comment_href" style="text;align=left;verticalAlign=middle;spacingLeft=4;spacingRight=4;overflow=hidden;points=[[0,0.5],[1,0.5]];portConstraint=eastwest;rotatable=0;whiteSpace=wrap;html=1;" parent="eHMBAaHmhwhKZ04-8SyI-72" vertex="1">
          <mxGeometry y="90" width="140" height="30" as="geometry" />
        </mxCell>
        <mxCell id="B8zyZ4hVJzOk52c6VMQS-1" value="author_name" style="text;align=left;verticalAlign=middle;spacingLeft=4;spacingRight=4;overflow=hidden;points=[[0,0.5],[1,0.5]];portConstraint=eastwest;rotatable=0;whiteSpace=wrap;html=1;" parent="eHMBAaHmhwhKZ04-8SyI-72" vertex="1">
          <mxGeometry y="120" width="140" height="30" as="geometry" />
        </mxCell>
        <mxCell id="B8zyZ4hVJzOk52c6VMQS-2" value="rating" style="text;align=left;verticalAlign=middle;spacingLeft=4;spacingRight=4;overflow=hidden;points=[[0,0.5],[1,0.5]];portConstraint=eastwest;rotatable=0;whiteSpace=wrap;html=1;" parent="eHMBAaHmhwhKZ04-8SyI-72" vertex="1">
          <mxGeometry y="150" width="140" height="30" as="geometry" />
        </mxCell>
        <mxCell id="B8zyZ4hVJzOk52c6VMQS-3" value="comment_text" style="text;align=left;verticalAlign=middle;spacingLeft=4;spacingRight=4;overflow=hidden;points=[[0,0.5],[1,0.5]];portConstraint=eastwest;rotatable=0;whiteSpace=wrap;html=1;" parent="eHMBAaHmhwhKZ04-8SyI-72" vertex="1">
          <mxGeometry y="180" width="140" height="30" as="geometry" />
        </mxCell>
        <mxCell id="eHMBAaHmhwhKZ04-8SyI-97" style="edgeStyle=orthogonalEdgeStyle;rounded=0;orthogonalLoop=1;jettySize=auto;html=1;exitX=0;exitY=0.5;exitDx=0;exitDy=0;entryX=1;entryY=0.5;entryDx=0;entryDy=0;endArrow=ERoneToMany;endFill=0;startArrow=ERone;startFill=0;" parent="1" source="eHMBAaHmhwhKZ04-8SyI-2" target="eHMBAaHmhwhKZ04-8SyI-7" edge="1">
          <mxGeometry relative="1" as="geometry">
            <Array as="points">
              <mxPoint x="920" y="565" />
              <mxPoint x="920" y="30" />
            </Array>
          </mxGeometry>
        </mxCell>
        <mxCell id="eHMBAaHmhwhKZ04-8SyI-107" value="station_desc_api" style="swimlane;fontStyle=0;childLayout=stackLayout;horizontal=1;startSize=30;horizontalStack=0;resizeParent=1;resizeParentMax=0;resizeLast=0;collapsible=1;marginBottom=0;whiteSpace=wrap;html=1;" parent="1" vertex="1">
          <mxGeometry x="500" y="320" width="140" height="150" as="geometry" />
        </mxCell>
        <mxCell id="eHMBAaHmhwhKZ04-8SyI-108" value="id" style="text;align=left;verticalAlign=middle;spacingLeft=4;spacingRight=4;overflow=hidden;points=[[0,0.5],[1,0.5]];portConstraint=eastwest;rotatable=0;whiteSpace=wrap;html=1;" parent="eHMBAaHmhwhKZ04-8SyI-107" vertex="1">
          <mxGeometry y="30" width="140" height="30" as="geometry" />
        </mxCell>
        <mxCell id="eHMBAaHmhwhKZ04-8SyI-109" value="api_id" style="text;align=left;verticalAlign=middle;spacingLeft=4;spacingRight=4;overflow=hidden;points=[[0,0.5],[1,0.5]];portConstraint=eastwest;rotatable=0;whiteSpace=wrap;html=1;" parent="eHMBAaHmhwhKZ04-8SyI-107" vertex="1">
          <mxGeometry y="60" width="140" height="30" as="geometry" />
        </mxCell>
        <mxCell id="aSg1vlam2pqVKuxM8nzA-3" value="&lt;div&gt;&lt;span style=&quot;background-color: initial;&quot;&gt;og_api_pk&lt;/span&gt;&lt;br&gt;&lt;/div&gt;" style="text;align=left;verticalAlign=middle;spacingLeft=4;spacingRight=4;overflow=hidden;points=[[0,0.5],[1,0.5]];portConstraint=eastwest;rotatable=0;whiteSpace=wrap;html=1;" vertex="1" parent="eHMBAaHmhwhKZ04-8SyI-107">
          <mxGeometry y="90" width="140" height="30" as="geometry" />
        </mxCell>
        <mxCell id="eHMBAaHmhwhKZ04-8SyI-110" value="description_id" style="text;align=left;verticalAlign=middle;spacingLeft=4;spacingRight=4;overflow=hidden;points=[[0,0.5],[1,0.5]];portConstraint=eastwest;rotatable=0;whiteSpace=wrap;html=1;" parent="eHMBAaHmhwhKZ04-8SyI-107" vertex="1">
          <mxGeometry y="120" width="140" height="30" as="geometry" />
        </mxCell>
        <mxCell id="eHMBAaHmhwhKZ04-8SyI-120" style="edgeStyle=orthogonalEdgeStyle;rounded=0;orthogonalLoop=1;jettySize=auto;html=1;exitX=1;exitY=0.5;exitDx=0;exitDy=0;entryX=-0.004;entryY=0.332;entryDx=0;entryDy=0;endArrow=ERone;endFill=0;startArrow=ERzeroToMany;startFill=0;entryPerimeter=0;" parent="1" source="eHMBAaHmhwhKZ04-8SyI-117" target="eHMBAaHmhwhKZ04-8SyI-6" edge="1">
          <mxGeometry relative="1" as="geometry" />
        </mxCell>
        <mxCell id="eHMBAaHmhwhKZ04-8SyI-122" style="edgeStyle=orthogonalEdgeStyle;rounded=0;orthogonalLoop=1;jettySize=auto;html=1;exitX=1;exitY=0.5;exitDx=0;exitDy=0;entryX=-0.002;entryY=0.329;entryDx=0;entryDy=0;endArrow=none;endFill=0;startArrow=ERzeroToMany;startFill=0;entryPerimeter=0;" parent="1" source="eHMBAaHmhwhKZ04-8SyI-118" target="eHMBAaHmhwhKZ04-8SyI-6" edge="1">
          <mxGeometry relative="1" as="geometry" />
        </mxCell>
        <mxCell id="eHMBAaHmhwhKZ04-8SyI-125" style="edgeStyle=orthogonalEdgeStyle;rounded=0;orthogonalLoop=1;jettySize=auto;html=1;exitX=0;exitY=0.5;exitDx=0;exitDy=0;entryX=1;entryY=0.5;entryDx=0;entryDy=0;startArrow=ERoneToMany;startFill=0;endArrow=ERone;endFill=0;" parent="1" source="eHMBAaHmhwhKZ04-8SyI-121" target="eHMBAaHmhwhKZ04-8SyI-6" edge="1">
          <mxGeometry relative="1" as="geometry" />
        </mxCell>
        <mxCell id="u-J10bVzSYn4lDrhSXR1-1" style="edgeStyle=orthogonalEdgeStyle;rounded=0;orthogonalLoop=1;jettySize=auto;html=1;exitX=1;exitY=0.5;exitDx=0;exitDy=0;endArrow=ERoneToMany;endFill=0;startArrow=ERoneToMany;startFill=0;" parent="1" source="eHMBAaHmhwhKZ04-8SyI-56" edge="1">
          <mxGeometry relative="1" as="geometry">
            <mxPoint x="740" y="10" as="targetPoint" />
            <Array as="points">
              <mxPoint x="710" y="525" />
              <mxPoint x="710" y="10" />
            </Array>
          </mxGeometry>
        </mxCell>
        <mxCell id="u-J10bVzSYn4lDrhSXR1-2" style="edgeStyle=orthogonalEdgeStyle;rounded=0;orthogonalLoop=1;jettySize=auto;html=1;exitX=1;exitY=0.5;exitDx=0;exitDy=0;endArrow=none;endFill=0;" parent="1" source="eHMBAaHmhwhKZ04-8SyI-108" edge="1">
          <mxGeometry relative="1" as="geometry">
            <mxPoint x="740" y="10" as="targetPoint" />
            <Array as="points">
              <mxPoint x="710" y="365" />
              <mxPoint x="710" y="10" />
              <mxPoint x="740" y="10" />
            </Array>
          </mxGeometry>
        </mxCell>
      </root>
    </mxGraphModel>
  </diagram>
</mxfile>
